<?xml version="1.0" encoding="utf-8"?>
<!-- Generator: Adobe Illustrator 26.3.1, SVG Export Plug-In . SVG Version: 6.00 Build 0)  -->
<svg version="1.1" id="Layer_1" xmlns="http://www.w3.org/2000/svg" xmlns:xlink="http://www.w3.org/1999/xlink" x="0px" y="0px"
	 viewBox="0 0 300 300" style="enable-background:new 0 0 300 300;" xml:space="preserve">
<g>
	<path d="M150,21c34.5,0,66.9,13.4,91.2,37.8C265.6,83.1,279,115.5,279,150s-13.4,66.9-37.8,91.2C216.9,265.6,184.5,279,150,279
		s-66.9-13.4-91.2-37.8C34.4,216.9,21,184.5,21,150s13.4-66.9,37.8-91.2C83.1,34.4,115.5,21,150,21 M150,4C69.4,4,4,69.4,4,150
		s65.4,146,146,146s146-65.4,146-146S230.6,4,150,4L150,4z"/>
</g>
<g>
	<path d="M182,115.5c0-4.4,1.1-7.5,3.3-9.5c2.2-2,5-3,8.6-3h2.7c3.5,0,6.4,1,8.6,3c2.2,2,3.3,5.1,3.3,9.5s-1.1,7.5-3.3,9.5
		c-2.2,2-5,3-8.6,3h-2.7c-3.6,0-6.4-1-8.6-3C183.1,123,182,119.8,182,115.5z M97.9,115.5c0-4.4,1.1-7.5,3.3-9.5c2.2-2,5-3,8.6-3h2.7
		c3.5,0,6.4,1,8.6,3s3.3,5.1,3.3,9.5s-1.1,7.5-3.3,9.5c-2.2,2-5,3-8.6,3h-2.7c-3.6,0-6.4-1-8.6-3C99,123,97.9,119.8,97.9,115.5z"/>
	<path d="M153.4,197c-10,0-19.6-1-28.8-3c-9.2-2-17.8-4.6-25.7-8c-8-3.3-15.1-7.3-21.5-11.8s-11.7-9.3-16-14.4v-15.6
		c4.9,5.6,10.7,10.7,17.2,15.2c6.6,4.5,13.5,8.5,20.9,11.8c7.4,3.3,14.9,5.8,22.5,7.6s15.1,2.7,22.3,2.7h17.6
		c7.1,0,14.5-0.9,22.2-2.7c7.6-1.8,15.1-4.3,22.5-7.4c7.4-3.3,14.4-7.1,20.9-11.7c6.6-4.6,12.4-9.8,17.6-15.5v15.6
		c-4.5,5.2-10,10-16.4,14.5s-13.5,8.5-21.4,11.8c-7.9,3.3-16.3,6-25.5,7.9C172.7,196.1,163.2,197,153.4,197z"/>
</g>
</svg>
